HIERARCHY
ROOT hip
{
  OFFSET 0 0 0
  CHANNELS 6 Xposition Yposition Zposition Zrotation Yrotation Xrotation
  JOINT abdomen
  {
    OFFSET 0 20.6881 -0.73152
    CHANNELS 3 Zrotation Xrotation Yrotation
    JOINT chest
    {
      OFFSET 0 11.7043 -0.48768
      CHANNELS 3 Zrotation Xrotation Yrotation
      JOINT neck
      {
        OFFSET 0 22.1894 -2.19456
        CHANNELS 3 Zrotation Xrotation Yrotation
        JOINT head
        {
          OFFSET -0.24384 7.07133 1.2192
          CHANNELS 3 Zrotation Xrotation Yrotation
          JOINT leftEye
          {
            OFFSET 4.14528 8.04674 8.04672
            CHANNELS 3 Zrotation Xrotation Yrotation
            End Site
            {
              OFFSET 1 0 0
            }
          }
          JOINT rightEye
          {
            OFFSET -3.6576 8.04674 8.04672
            CHANNELS 3 Zrotation Xrotation Yrotation
            End Site
            {
              OFFSET 1 0 0
            }
          }
        }
      }
      JOINT rCollar
      {
        OFFSET -2.68224 19.2634 -4.8768
        CHANNELS 3 Zrotation Xrotation Yrotation
        JOINT rShldr
        {
          OFFSET -8.77824 -1.95073 1.46304
          CHANNELS 3 Zrotation Xrotation Yrotation
          JOINT rForeArm
          {
            OFFSET -28.1742 -1.7115 0.48768
            CHANNELS 3 Zrotation Xrotation Yrotation
            JOINT rHand
            {
              OFFSET -22.5879 0.773209 7.07136
              CHANNELS 3 Zrotation Xrotation Yrotation
              JOINT rThumb1
              {
                OFFSET -1.2192 -0.487915 3.41376
                CHANNELS 3 Zrotation Xrotation Yrotation
                JOINT rThumb2
                {
                  OFFSET -3.37035 -0.52449 3.41376
                  CHANNELS 3 Zrotation Xrotation Yrotation
                  End Site
                  {
                    OFFSET -1.78271 -1.18214 1.43049
                  }
                }
              }
              JOINT rIndex1
              {
                OFFSET -7.75947 0.938293 5.60832
                CHANNELS 3 Zrotation Xrotation Yrotation
                JOINT rIndex2
                {
                  OFFSET -2.54057 -0.884171 1.56538
                  CHANNELS 3 Zrotation Xrotation Yrotation
                  End Site
                  {
                    OFFSET -1.62519 -0.234802 1.16502
                  }
                }
              }
              JOINT rMid1
              {
                OFFSET -8.24714 1.18213 3.41376
                CHANNELS 3 Zrotation Xrotation Yrotation
                JOINT rMid2
                {
                  OFFSET -3.10165 -0.590103 1.0647
                  CHANNELS 3 Zrotation Xrotation Yrotation
                  End Site
                  {
                    OFFSET -2.48547 -0.328903 0.83742
                  }
                }
              }
              JOINT rRing1
              {
                OFFSET -8.82822 0.546677 1.51678
                CHANNELS 3 Zrotation Xrotation Yrotation
                JOINT rRing2
                {
                  OFFSET -2.60934 -0.819778 -0.0198488
                  CHANNELS 3 Zrotation Xrotation Yrotation
                  End Site
                  {
                    OFFSET -2.33842 -0.294052 0.168128
                  }
                }
              }
              JOINT rPinky1
              {
                OFFSET -8.27202 -0.0477905 -0.4584
                CHANNELS 3 Zrotation Xrotation Yrotation
                JOINT rPinky2
                {
                  OFFSET -1.82734 -0.647385 -0.700984
                  CHANNELS 3 Zrotation Xrotation Yrotation
                  End Site
                  {
                    OFFSET -1.69225 -0.51767 -0.607171
                  }
                }
              }
            }
          }
        }
      }
      JOINT lCollar
      {
        OFFSET 2.68224 19.2634 -4.8768
        CHANNELS 3 Zrotation Xrotation Yrotation
        JOINT lShldr
        {
          OFFSET 8.77824 -1.95073 1.46304
          CHANNELS 3 Zrotation Xrotation Yrotation
          JOINT lForeArm
          {
            OFFSET 28.1742 -1.7115 0.48768
            CHANNELS 3 Zrotation Xrotation Yrotation
            JOINT lHand
            {
              OFFSET 22.5879 0.773209 7.07136
              CHANNELS 3 Zrotation Xrotation Yrotation
              JOINT lThumb1
              {
                OFFSET 1.2192 -0.487915 3.41376
                CHANNELS 3 Zrotation Xrotation Yrotation
                JOINT lThumb2
                {
                  OFFSET 3.37035 -0.52449 3.41376
                  CHANNELS 3 Zrotation Xrotation Yrotation
                  End Site
                  {
                    OFFSET 1.78271 -1.18214 1.43049
                  }
                }
              }
              JOINT lIndex1
              {
                OFFSET 7.75947 0.938293 5.60832
                CHANNELS 3 Zrotation Xrotation Yrotation
                JOINT lIndex2
                {
                  OFFSET 2.54057 -0.884171 1.56538
                  CHANNELS 3 Zrotation Xrotation Yrotation
                  End Site
                  {
                    OFFSET 1.62519 -0.234802 1.16502
                  }
                }
              }
              JOINT lMid1
              {
                OFFSET 8.24714 1.18213 3.41376
                CHANNELS 3 Zrotation Xrotation Yrotation
                JOINT lMid2
                {
                  OFFSET 3.10165 -0.590103 1.0647
                  CHANNELS 3 Zrotation Xrotation Yrotation
                  End Site
                  {
                    OFFSET 2.48547 -0.328903 0.83742
                  }
                }
              }
              JOINT lRing1
              {
                OFFSET 8.82822 0.546677 1.51678
                CHANNELS 3 Zrotation Xrotation Yrotation
                JOINT lRing2
                {
                  OFFSET 2.60934 -0.819778 -0.0198488
                  CHANNELS 3 Zrotation Xrotation Yrotation
                  End Site
                  {
                    OFFSET 2.33842 -0.294052 0.168128
                  }
                }
              }
              JOINT lPinky1
              {
                OFFSET 8.27202 -0.0477905 -0.4584
                CHANNELS 3 Zrotation Xrotation Yrotation
                JOINT lPinky2
                {
                  OFFSET 1.82734 -0.647385 -0.700984
                  CHANNELS 3 Zrotation Xrotation Yrotation
                  End Site
                  {
                    OFFSET 1.69225 -0.51767 -0.607171
                  }
                }
              }
            }
          }
        }
      }
    }
  }
  JOINT rButtock
  {
    OFFSET -8.77824 4.35084 1.2192
    CHANNELS 3 Zrotation Xrotation Yrotation
    JOINT rThigh
    {
      OFFSET 0 -1.70687 -2.19456
      CHANNELS 3 Zrotation Xrotation Yrotation
      JOINT rShin
      {
        OFFSET 0 -36.8199 0.73152
        CHANNELS 3 Zrotation Xrotation Yrotation
        JOINT rFoot
        {
          OFFSET 0.73152 -45.1104 -5.12064
          CHANNELS 3 Zrotation Xrotation Yrotation
          End Site
          {
            OFFSET -1.1221 -3.69964 12.103
          }
        }
      }
    }
  }
  JOINT lButtock
  {
    OFFSET 8.77824 4.35084 1.2192
    CHANNELS 3 Zrotation Xrotation Yrotation
    JOINT lThigh
    {
      OFFSET 0 -1.70687 -2.19456
      CHANNELS 3 Zrotation Xrotation Yrotation
      JOINT lShin
      {
        OFFSET 0 -36.8199 0.73152
        CHANNELS 3 Zrotation Xrotation Yrotation
        JOINT lFoot
        {
          OFFSET -0.73152 -45.1104 -5.12064
          CHANNELS 3 Zrotation Xrotation Yrotation
          End Site
          {
            OFFSET 1.1221 -3.69964 12.103
          }
        }
      }
    }
  }
}
MOTION
Frames:	9
Frame Time:	0.00833333
59.8482 84.5501 -62.4025 0.0 0.0 0.0 -0.735061 -0.00369193 -0.0206963 -0.202664 -0.00499158 -0.035114 2.36693e-14 7.95139e-16 -1.86361e-16 7.10313e-14 9.54166e-15 -5.26469e-16 -0.0 0.0 0.0 -0.0 0.0 0.0 1.18268e-14 1.06769e-17 0.0 2.50507e-13 4.22417e-16 0.0 4.28401e-12 -1.26944e-12 -7.31528e-14 4.90168e-11 1.33777e-12 -2.73528e-13 1.15622e-10 1.43522e-13 -7.63333e-13 1.99667e-10 2.48083e-13 -1.34617e-12 1.15625e-10 1.4233e-13 -7.69694e-13 7.73091 5.47488 0.417314 1.15622e-10 1.43125e-13 -7.66514e-13 2.90554 0.965183 0.102902 1.15633e-10 1.43721e-13 -7.74465e-13 10.2786 0.731801 0.0259123 1.15618e-10 1.4551e-13 -7.76055e-13 2.22167 -0.733487 -0.20892 1.17299e-14 1.0871e-17 -1.98785e-16 2.46599e-13 2.11209e-16 -2.38542e-15 4.28257e-12 1.28952e-12 -7.63333e-14 4.90089e-11 -1.23025e-12 -2.79889e-13 1.1561e-10 1.27698e-13 -7.85597e-13 1.9966e-10 2.19458e-13 -1.33901e-12 1.15608e-10 1.28415e-13 -7.79236e-13 -7.73091 5.47488 -0.417314 1.15609e-10 1.27322e-13 -7.85597e-13 -2.90554 0.965183 -0.102902 1.15598e-10 1.27819e-13 -7.76055e-13 -10.2786 0.731801 -0.0259123 1.15613e-10 1.30005e-13 -7.72875e-13 -2.22167 -0.733487 0.20892 -2.03217e-16 0.0 -3.88251e-19 -0.0339447 -2.13128 -0.0183736 -0.00890312 -1.69207 -0.0750948 -0.522839 3.82303 0.138304 2.03217e-16 0.0 3.88251e-19 -1.08346 -4.91189 0.0910262 0.00129146 3.34453 -0.00265531 0.531266 1.56717 -0.0928504
56.47 83.5584 -64.6055 7.2371 -54.7391 -2.2244 -2.16413 -0.791775 0.124129 0.593747 0.421042 -0.00245549 -2.46303 -1.51273 -0.747232 2.67063 1.4979 -0.744301 -0.0 0.0 0.0 -0.0 0.0 0.0 4.07698e-14 1.16963e-13 3.99683e-13 20.3711 17.5473 2.32744 -23.0059 -20.8785 14.8845 0.0105834 2.28243 0.319856 6.75734e-10 3.08075e-09 7.20595e-10 1.16391e-09 5.3186e-09 1.24037e-09 6.75737e-10 3.08075e-09 7.20591e-10 7.73091 5.47488 0.417314 6.75734e-10 3.08075e-09 7.2059e-10 2.90554 0.965183 0.102902 6.75743e-10 3.08075e-09 7.20587e-10 10.2786 0.731801 0.0259123 6.75729e-10 3.08075e-09 7.20587e-10 2.22167 -0.733487 -0.20892 4.0707e-14 1.16963e-13 3.99514e-13 -20.8522 17.6979 -1.40671 18.7857 -16.4268 -15.1363 -0.0315762 3.94363 -0.549509 1.45917e-09 1.7009e-11 -2.14337e-10 2.5127e-09 2.94738e-11 -3.91213e-10 1.45917e-09 1.70116e-11 -2.14328e-10 -7.73091 5.47488 -0.417314 1.45917e-09 1.70108e-11 -2.14338e-10 -2.90554 0.965183 -0.102902 1.45917e-09 1.70112e-11 -2.1433e-10 -10.2786 0.731801 -0.0259123 1.45918e-09 1.70123e-11 -2.14332e-10 -2.22167 -0.733487 0.20892 -2.03217e-16 0.0 -3.88251e-19 -4.24131 -4.11899 -0.581453 0.00245633 4.53358 0.046946 -0.79201 -0.105328 -3.57459 2.03217e-16 0.0 3.88251e-19 -2.29363 -5.76747 2.62947 -0.00507504 6.97977 -0.0651242 0.565105 -1.40202 1.46634
56.471 83.5565 -64.6026 7.2324 -54.727 -2.2229 -3.66386 -1.62216 0.271595 1.43137 0.874546 0.0303075 -5.11669 -3.11887 -1.53835 5.54053 3.09855 -1.53002 -0.0 0.0 0.0 -0.0 0.0 0.0 7.26506e-14 2.44249e-13 8.46875e-13 40.0173 36.0079 5.64852 -33.4369 -37.8403 37.2659 -0.00603053 4.69791 0.660082 1.32051e-09 6.44e-09 1.51077e-09 2.27389e-09 1.11177e-08 2.60033e-09 1.32051e-09 6.44e-09 1.51076e-09 7.73091 5.47488 0.417314 1.32051e-09 6.44e-09 1.51076e-09 2.90554 0.965183 0.102902 1.32052e-09 6.43999e-09 1.51076e-09 10.2786 0.731801 0.0259123 1.3205e-09 6.44e-09 1.51076e-09 2.22167 -0.733487 -0.20892 7.26254e-14 2.44249e-13 8.46742e-13 -41.7632 36.355 -3.39633 28.488 -29.8051 -34.9872 0.0180274 8.10627 -1.13842 2.96162e-09 3.88911e-11 -4.42667e-10 5.09936e-09 6.7382e-11 -8.09094e-10 2.96162e-09 3.88958e-11 -4.42655e-10 -7.73091 5.47488 -0.417314 2.96162e-09 3.88953e-11 -4.42669e-10 -2.90554 0.965183 -0.102902 2.96162e-09 3.88957e-11 -4.42664e-10 -10.2786 0.731801 -0.0259123 2.96163e-09 3.88955e-11 -4.42671e-10 -2.22167 -0.733487 0.20892 -2.03217e-16 0.0 -3.88251e-19 -8.74128 -6.20522 -1.19281 -0.0147729 11.1082 0.178807 -1.62736 -4.2201 -7.50878 2.03217e-16 0.0 3.88251e-19 -3.50068 -6.64321 5.30063 -0.00302174 10.819 -0.132502 0.779219 -4.5332 3.14138
56.4642 83.5444 -64.6388 6.9618 -54.7384 -1.9405 -5.01032 -2.36788 0.414097 2.18511 1.27311 0.0628773 -7.50776 -4.5351 -2.24796 8.12891 4.49065 -2.23902 -0.0 0.0 0.0 -0.0 0.0 0.0 9.86557e-14 3.50868e-13 1.19905e-12 54.5719 52.1789 10.8978 -30.7739 -42.4508 64.273 -0.0451642 6.84645 0.965694 1.79596e-09 9.24197e-09 2.16331e-09 3.0924e-09 1.59553e-08 3.72381e-09 1.79596e-09 9.24197e-09 2.16331e-09 7.73091 5.47488 0.417314 1.79596e-09 9.24196e-09 2.1633e-09 2.90554 0.965183 0.102902 1.79596e-09 9.24196e-09 2.16331e-09 10.2786 0.731801 0.0259123 1.79595e-09 9.24197e-09 2.16331e-09 2.22167 -0.733487 -0.20892 9.86612e-14 3.50868e-13 1.19894e-12 -58.5032 52.9212 -6.67788 29.1562 -34.2775 -56.4341 0.13636 11.8265 -1.6803 4.1463e-09 5.07716e-11 -6.4144e-10 7.13878e-09 8.79823e-11 -1.17096e-09 4.14631e-09 5.0778e-11 -6.41425e-10 -7.73091 5.47488 -0.417314 4.1463e-09 5.07777e-11 -6.41443e-10 -2.90554 0.965183 -0.102902 4.1463e-09 5.07781e-11 -6.41439e-10 -10.2786 0.731801 -0.0259123 4.14631e-09 5.07769e-11 -6.41451e-10 -2.22167 -0.733487 0.20892 -2.03217e-16 0.0 -3.88251e-19 -12.7743 -8.09144 -1.72026 -0.0568644 16.9847 0.303771 -2.85787 -7.81547 -11.1042 2.03217e-16 0.0 3.88251e-19 -4.48583 -7.42931 7.73236 0.00666534 14.2502 -0.194611 1.12009 -7.31817 4.62105
56.4634 83.5239 -64.6933 6.546 -54.6883 -1.48 -5.98123 -2.90197 0.543919 2.7301 1.53431 0.0949495 -9.15767 -5.47953 -2.74767 9.92923 5.36431 -2.75011 -0.0 0.0 0.0 -0.0 0.0 0.0 1.09972e-13 4.05819e-13 1.31367e-12 60.888 62.9747 18.0763 -28.3018 -38.3242 80.9681 -0.0858351 8.32846 1.17889 1.8481e-09 1.06507e-08 2.4718e-09 3.18219e-09 1.83892e-08 4.25611e-09 1.84811e-09 1.06507e-08 2.4718e-09 7.73091 5.47488 0.417314 1.8481e-09 1.06507e-08 2.47179e-09 2.90554 0.965183 0.102902 1.84811e-09 1.06507e-08 2.4718e-09 10.2786 0.731801 0.0259123 1.84809e-09 1.06507e-08 2.47181e-09 2.22167 -0.733487 -0.20892 1.09991e-13 4.05819e-13 1.31357e-12 -67.2348 64.3617 -11.6997 28.2087 -32.0505 -70.5351 0.262941 14.4447 -2.07466 4.53657e-09 3.76483e-11 -7.66317e-10 7.81008e-09 6.53127e-11 -1.39279e-09 4.53657e-09 3.7655e-11 -7.66301e-10 -7.73091 5.47488 -0.417314 4.53657e-09 3.76549e-11 -7.6632e-10 -2.90554 0.965183 -0.102902 4.53656e-09 3.76552e-11 -7.66318e-10 -10.2786 0.731801 -0.0259123 4.53657e-09 3.76538e-11 -7.66332e-10 -2.22167 -0.733487 0.20892 -2.03217e-16 0.0 -3.88251e-19 -15.5533 -9.48051 -2.02671 -0.102725 21.1161 0.398348 -4.00673 -10.262 -13.7293 2.03217e-16 0.0 3.88251e-19 -5.06822 -8.02883 9.54693 0.018003 16.6616 -0.239587 1.42455 -9.261 5.57334
56.4618 83.5256 -64.7702 6.2873 -54.6958 -1.1849 -6.42936 -3.14261 0.664551 2.98086 1.59947 0.128982 -9.70958 -5.74919 -2.94909 10.5768 5.47983 -2.98641 -0.0 0.0 0.0 -0.0 0.0 0.0 9.85715e-14 3.82828e-13 1.06761e-12 61.7519 66.8517 22.5071 -28.2278 -35.4398 85.9252 -0.104612 8.89904 1.26161 1.21731e-09 9.8915e-09 2.23664e-09 2.09618e-09 1.70829e-08 3.85434e-09 1.21731e-09 9.8915e-09 2.23664e-09 7.73091 5.47488 0.417314 1.21731e-09 9.8915e-09 2.23663e-09 2.90554 0.965183 0.102902 1.21732e-09 9.89149e-09 2.23664e-09 10.2786 0.731801 0.0259123 1.2173e-09 9.8915e-09 2.23665e-09 2.22167 -0.733487 -0.20892 9.85789e-14 3.82829e-13 1.0675e-12 -68.3282 68.8284 -15.9416 28.1268 -30.0264 -75.0807 0.325853 15.5428 -2.24382 3.66085e-09 -1.25533e-11 -7.73447e-10 6.30098e-09 -2.151e-11 -1.39152e-09 3.66085e-09 -1.25486e-11 -7.73432e-10 -7.73091 5.47488 -0.417314 3.66085e-09 -1.25486e-11 -7.7345e-10 -2.90554 0.965183 -0.102902 3.66084e-09 -1.25483e-11 -7.73449e-10 -10.2786 0.731801 -0.0259123 3.66085e-09 -1.25488e-11 -7.73464e-10 -2.22167 -0.733487 0.20892 -2.03217e-16 0.0 -3.88251e-19 -16.5101 -10.1898 -1.99565 -0.125231 22.8033 0.439452 -4.56431 -11.2097 -14.9109 2.03217e-16 0.0 3.88251e-19 -5.1189 -8.40529 10.5475 0.0235086 17.6547 -0.258099 1.51097 -10.0543 5.71291
56.5136 83.5764 -65.1108 5.7251 -54.7072 -0.2397 -6.50522 -3.17352 0.778123 3.0218 1.52478 0.16428 -9.46997 -5.53822 -2.93637 10.3932 5.05606 -3.02518 -0.0 0.0 0.0 -0.0 0.0 0.0 7.10482e-14 3.04431e-13 5.65275e-13 62.2097 66.1632 21.62 -28.2079 -35.7849 85.415 -0.102095 8.81775 1.24983 1.03001e-10 7.59404e-09 1.6161e-09 1.77703e-10 1.31229e-08 2.79044e-09 1.03007e-10 7.59403e-09 1.6161e-09 7.73091 5.47488 0.417314 1.03e-10 7.59404e-09 1.6161e-09 2.90554 0.965183 0.102902 1.03009e-10 7.59402e-09 1.61611e-09 10.2786 0.731801 0.0259123 1.02995e-10 7.59404e-09 1.61612e-09 2.22167 -0.733487 -0.20892 7.10253e-14 3.04432e-13 5.65117e-13 -66.8466 68.4963 -16.8455 28.1024 -30.1202 -74.3009 0.324265 15.555 -2.2453 1.88818e-09 -8.91406e-11 -6.97154e-10 3.24705e-09 -1.53986e-10 -1.23218e-09 1.88818e-09 -8.91395e-11 -6.97142e-10 -7.73091 5.47488 -0.417314 1.88818e-09 -8.91395e-11 -6.97156e-10 -2.90554 0.965183 -0.102902 1.88817e-09 -8.91392e-11 -6.97156e-10 -10.2786 0.731801 -0.0259123 1.88818e-09 -8.91379e-11 -6.97169e-10 -2.22167 -0.733487 0.20892 -2.03217e-16 0.0 -3.88251e-19 -16.1572 -10.4131 -1.72242 -0.123531 22.745 0.438748 -4.58199 -11.124 -15.029 2.03217e-16 0.0 3.88251e-19 -4.80871 -8.62798 10.9611 0.022834 17.6343 -0.256934 1.4091 -10.0296 5.26588
56.5889 83.5972 -65.3361 5.6088 -54.4834 0.2328 -6.43338 -3.11604 0.874833 2.9828 1.40014 0.195812 -8.9508 -5.16109 -2.83848 9.89689 4.47153 -2.97493 -0.0 0.0 0.0 -0.0 0.0 0.0 4.05171e-14 2.12844e-13 5.38426e-15 62.3155 63.6314 18.7595 -28.2139 -37.4228 82.7156 -0.0903454 8.44192 1.1954 -1.06021e-09 5.02935e-09 9.4057e-10 -1.82474e-09 8.70143e-09 1.63194e-09 -1.06021e-09 5.02935e-09 9.40562e-10 7.73091 5.47488 0.417314 -1.06021e-09 5.02936e-09 9.4057e-10 2.90554 0.965183 0.102902 -1.0602e-09 5.02935e-09 9.40573e-10 10.2786 0.731801 0.0259123 -1.06022e-09 5.02935e-09 9.4059e-10 2.22167 -0.733487 -0.20892 4.046e-14 2.12845e-13 5.17889e-15 -64.8023 66.2792 -15.978 28.1019 -31.0329 -71.4227 0.29473 15.1015 -2.17464 2.80764e-12 -1.72966e-10 -6.10359e-10 -7.16427e-13 -2.99003e-10 -1.05288e-09 2.80576e-12 -1.72968e-10 -6.10351e-10 -7.73091 5.47488 -0.417314 2.80709e-12 -1.72968e-10 -6.1036e-10 -2.90554 0.965183 -0.102902 2.80381e-12 -1.72968e-10 -6.10361e-10 -10.2786 0.731801 -0.0259123 2.81142e-12 -1.72965e-10 -6.10371e-10 -2.22167 -0.733487 0.20892 -2.03217e-16 0.0 -3.88251e-19 -15.3246 -10.4187 -1.38589 -0.111897 21.9902 0.421191 -4.37221 -10.6363 -14.6935 2.03217e-16 0.0 3.88251e-19 -4.41358 -8.76354 11.0442 0.0196366 17.1934 -0.247669 1.25252 -9.6561 4.65671
56.5259 83.5614 -65.1931 6.2359 -54.926 -0.7176 -6.43735 -3.09148 0.944936 2.99348 1.31544 0.218551 -8.66306 -4.9323 -2.78412 9.60537 4.10481 -2.94358 -0.0 0.0 0.0 -0.0 0.0 0.0 2.00936e-14 1.5028e-13 -4.13323e-13 62.1955 61.9865 17.1975 -28.3033 -38.3271 80.9623 -0.0817353 8.12886 1.15024 -1.83772e-09 3.46846e-09 5.40402e-10 -3.16268e-09 6.01055e-09 9.46384e-10 -1.83772e-09 3.46846e-09 5.40392e-10 7.73091 5.47488 0.417314 -1.83772e-09 3.46847e-09 5.40405e-10 2.90554 0.965183 0.102902 -1.83771e-09 3.46846e-09 5.40405e-10 10.2786 0.731801 0.0259123 -1.83773e-09 3.46847e-09 5.40424e-10 2.22167 -0.733487 -0.20892 2.00125e-14 1.50282e-13 -4.13571e-13 -63.3252 65.0014 -15.7368 28.1353 -31.4905 -69.6342 0.276507 14.8025 -2.12839 -1.21101e-09 -2.4488e-10 -5.85985e-10 -2.09136e-09 -4.23449e-10 -9.91733e-10 -1.21101e-09 -2.44885e-10 -5.85979e-10 -7.73091 5.47488 -0.417314 -1.21101e-09 -2.44885e-10 -5.85985e-10 -2.90554 0.965183 -0.102902 -1.21101e-09 -2.44884e-10 -5.85986e-10 -10.2786 0.731801 -0.0259123 -1.211e-09 -2.4488e-10 -5.85995e-10 -2.22167 -0.733487 0.20892 -2.03217e-16 0.0 -3.88251e-19 -14.8408 -10.4753 -1.16492 -0.105423 21.5882 0.412154 -4.26376 -10.3717 -14.5178 2.03217e-16 0.0 3.88251e-19 -4.2011 -8.8755 11.0547 0.0177761 16.9251 -0.241969 1.16407 -9.40596 4.30837
